<?xml version="1.0" encoding="iso-8859-1"?>
<!-- Generator: Adobe Illustrator 19.0.0, SVG Export Plug-In . SVG Version: 6.00 Build 0)  -->
<svg xmlns="http://www.w3.org/2000/svg" xmlns:xlink="http://www.w3.org/1999/xlink" version="1.1" id="Layer_1" x="0px" y="0px" viewBox="0 0 502 502" style="enable-background:new 0 0 502 502;" xml:space="preserve" width="512" height="512">
<g>
	<g>
		<polygon style="fill:#4D93E8;" points="471,209 446,155 338.262,155 284.262,155 338.262,209   "/>
		<polygon style="fill:#4D93E8;" points="217.738,155 163.738,155 56,155 31,209 163.738,209   "/>
		<polygon style="fill:#CCD7EB;" points="338.262,209 284.262,155 251,121.738 217.738,155 163.738,209 31,209 31,399 471,399     471,209   "/>
	</g>
	<rect x="10" y="399" style="fill:#4D93E8;" width="482" height="36"/>
	<rect x="68" y="324" style="fill:#4D93E8;" width="38" height="38"/>
	<rect x="68" y="246" style="fill:#4D93E8;" width="38" height="38"/>
	<rect x="144" y="324" style="fill:#4D93E8;" width="38" height="38"/>
	<rect x="144" y="246" style="fill:#4D93E8;" width="38" height="38"/>
	<rect x="322" y="324" style="fill:#4D93E8;" width="38" height="38"/>
	<rect x="322" y="246" style="fill:#4D93E8;" width="38" height="38"/>
	<rect x="398" y="324" style="fill:#4D93E8;" width="38" height="38"/>
	<rect x="398" y="246" style="fill:#4D93E8;" width="38" height="38"/>
	<path style="fill:#4D93E8;" d="M274,399h-46v-47c0-12.703,10.297-23,23-23h0c12.703,0,23,10.297,23,23V399z"/>
	<circle style="fill:#4D93E8;" cx="251" cy="220" r="31"/>
	<rect x="250" y="67" style="fill:#4D93E8;" width="52" height="32"/>
	<g>
		<path d="M240,118.596L213.596,145H56c-3.896,0-7.438,2.263-9.074,5.799l-25,54c-0.594,1.282-0.883,2.653-0.907,4.023    C21.014,208.881,21,208.94,21,209v180H10c-5.522,0-10,4.477-10,10v36c0,5.523,4.478,10,10,10h482c5.522,0,10-4.477,10-10v-36    c0-5.523-4.478-10-10-10h-11V209c0-0.063-0.014-0.125-0.018-0.188c-0.026-1.367-0.315-2.734-0.907-4.013l-25-54    C453.438,147.263,449.896,145,446,145H288.404L260,116.596V109h42c5.522,0,10-4.477,10-10V67c0-5.523-4.478-10-10-10h-52    c-5.522,0-10,4.477-10,10V118.596z M264,389h-26v-37c0-7.168,5.832-13,13-13s13,5.832,13,13V389z M439.61,165l15.74,34H342.404    l-34-34H439.61z M292,89h-32V77h32V89z M62.39,165h131.206l-34,34H46.649L62.39,165z M41,219h110.773h11.966    c2.652,0,5.195-1.054,7.071-2.929L251,135.88l80.19,80.191c1.876,1.875,4.419,2.929,7.071,2.929h8.181H461v170H284v-37    c0-18.196-14.804-33-33-33s-33,14.804-33,33v37H41V219z M482,425H20v-16h462V425z"/>
		<path d="M106,314H68c-5.522,0-10,4.477-10,10v38c0,5.523,4.478,10,10,10h38c5.522,0,10-4.477,10-10v-38    C116,318.477,111.522,314,106,314z M96,352H78v-18h18V352z"/>
		<path d="M106,236H68c-5.522,0-10,4.477-10,10v38c0,5.523,4.478,10,10,10h38c5.522,0,10-4.477,10-10v-38    C116,240.477,111.522,236,106,236z M96,274H78v-18h18V274z"/>
		<path d="M182,314h-38c-5.522,0-10,4.477-10,10v38c0,5.523,4.478,10,10,10h38c5.522,0,10-4.477,10-10v-38    C192,318.477,187.522,314,182,314z M172,352h-18v-18h18V352z"/>
		<path d="M182,236h-38c-5.522,0-10,4.477-10,10v38c0,5.523,4.478,10,10,10h38c5.522,0,10-4.477,10-10v-38    C192,240.477,187.522,236,182,236z M172,274h-18v-18h18V274z"/>
		<path d="M322,372h38c5.522,0,10-4.477,10-10v-38c0-5.523-4.478-10-10-10h-38c-5.522,0-10,4.477-10,10v38    C312,367.523,316.478,372,322,372z M332,334h18v18h-18V334z"/>
		<path d="M322,294h38c5.522,0,10-4.477,10-10v-38c0-5.523-4.478-10-10-10h-38c-5.522,0-10,4.477-10,10v38    C312,289.523,316.478,294,322,294z M332,256h18v18h-18V256z"/>
		<path d="M398,372h38c5.522,0,10-4.477,10-10v-38c0-5.523-4.478-10-10-10h-38c-5.522,0-10,4.477-10,10v38    C388,367.523,392.478,372,398,372z M408,334h18v18h-18V334z"/>
		<path d="M398,294h38c5.522,0,10-4.477,10-10v-38c0-5.523-4.478-10-10-10h-38c-5.522,0-10,4.477-10,10v38    C388,289.523,392.478,294,398,294z M408,256h18v18h-18V256z"/>
		<path d="M251,261c22.607,0,41-18.393,41-41s-18.393-41-41-41s-41,18.393-41,41S228.393,261,251,261z M251,199    c11.579,0,21,9.42,21,21s-9.421,21-21,21s-21-9.42-21-21S239.421,199,251,199z"/>
		<path d="M269,286h-36c-5.522,0-10,4.477-10,10s4.478,10,10,10h36c5.522,0,10-4.477,10-10S274.522,286,269,286z"/>
		<path d="M128,174h-1c-5.522,0-10,4.477-10,10s4.478,10,10,10h1c5.522,0,10-4.477,10-10S133.522,174,128,174z"/>
		<path d="M98,174H75c-5.522,0-10,4.477-10,10s4.478,10,10,10h23c5.522,0,10-4.477,10-10S103.522,174,98,174z"/>
	</g>
</g>















</svg>
